<?xml version="1.0" encoding="UTF-8"?>
<svg width="16px" height="16px" viewBox="0 0 16 16" version="1.1" xmlns="http://www.w3.org/2000/svg" xmlns:xlink="http://www.w3.org/1999/xlink">
    <title>画板</title>
    <g id="画板" stroke="none" stroke-width="1" fill="none" fill-rule="evenodd">
        <path d="M2.044,2.316 C1.852,2.044 1.48933333,1.55066667 0.956,0.836 L1.348,0.5 C1.61466667,0.82 1.97733333,1.292 2.436,1.916 L2.044,2.316 Z M2.356,5.94 C2.58,5.59866667 2.75466667,5.27733333 2.88,4.976 C3.00533333,4.67466667 3.09466667,4.33733333 3.148,3.964 C3.20133333,3.59066667 3.228,3.12933333 3.228,2.58 L3.228,0.9 C3.91066667,0.878666667 4.59466667,0.833333333 5.28,0.764 C5.96533333,0.694666667 6.588,0.609333333 7.148,0.508 L7.244,1.052 C6.14,1.244 4.97466667,1.36933333 3.748,1.428 L3.748,2.396 L7.068,2.396 L7.068,2.908 C6.844,3.596 6.45733333,4.23866667 5.908,4.836 C6.644,5.49733333 7.116,5.924 7.324,6.116 L6.98,6.54 C6.68133333,6.24666667 6.204,5.80133333 5.548,5.204 C5.02,5.68933333 4.38,6.12933333 3.628,6.524 L3.332,6.044 C4.04133333,5.68133333 4.644,5.276 5.14,4.828 L3.892,3.676 L4.212,3.292 C4.38266667,3.452 4.55466667,3.61066667 4.728,3.768 C4.90133333,3.92533333 5.06,4.07066667 5.204,4.204 C5.26266667,4.252 5.36133333,4.34 5.5,4.468 C5.948,3.988 6.27866667,3.468 6.492,2.908 L3.748,2.908 C3.73733333,3.65466667 3.66,4.27466667 3.516,4.768 C3.372,5.26133333 3.12933333,5.76666667 2.788,6.284 L2.356,5.94 Z M7.572,6.788 L7.492,7.34 L4.1,7.34 C3.716,7.34 3.39733333,7.312 3.144,7.256 C2.89066667,7.2 2.66,7.1 2.452,6.956 C2.244,6.812 2.03333333,6.604 1.82,6.332 L0.764,7.484 L0.5,6.948 L1.516,5.836 L1.516,3.588 L0.548,3.588 L0.548,3.068 L2.052,3.068 L2.052,5.796 C2.244,6.068 2.43733333,6.27466667 2.632,6.416 C2.82666667,6.55733333 3.044,6.65466667 3.284,6.708 C3.524,6.76133333 3.83066667,6.788 4.204,6.788 L7.572,6.788 Z M9.15600001,7.628 L9.15600001,0.748 L15.292,0.748 L15.292,7.628 L14.748,7.628 L14.748,7.036 L9.70000001,7.036 L9.70000001,7.628 L9.15600001,7.628 Z M9.70000001,1.3 L9.70000001,6.5 L14.748,6.5 L14.748,1.3 L9.70000001,1.3 Z M10.78,5.324 L10.78,2.46 L13.66,2.46 L13.66,5.324 L10.78,5.324 Z M11.26,4.82 L13.18,4.82 L13.18,2.956 L11.26,2.956 L11.26,4.82 Z M5.54,15.196 C5.00666667,15.196 4.53866667,15.0666667 4.136,14.808 C3.73333333,14.5493333 3.42266667,14.1826667 3.204,13.708 C2.98533333,13.2333333 2.876,12.6813333 2.876,12.052 C2.876,11.4226667 2.98533333,10.8706667 3.204,10.396 C3.42266667,9.92133333 3.732,9.55466667 4.132,9.296 C4.532,9.03733333 5.00133333,8.908 5.54,8.908 C6.07866667,8.908 6.54933333,9.03733333 6.952,9.296 C7.35466667,9.55466667 7.66533333,9.92133333 7.884,10.396 C8.10266667,10.8706667 8.212,11.4226667 8.212,12.052 C8.212,12.6813333 8.10266667,13.2333333 7.884,13.708 C7.66533333,14.1826667 7.35466667,14.5493333 6.952,14.808 C6.54933333,15.0666667 6.07866667,15.196 5.54,15.196 Z M5.54,14.612 C5.94533333,14.612 6.30133333,14.5066667 6.608,14.296 C6.91466667,14.0853333 7.152,13.7866667 7.32,13.4 C7.488,13.0133333 7.572,12.564 7.572,12.052 C7.572,11.54 7.488,11.0906667 7.32,10.704 C7.152,10.3173333 6.91466667,10.0186667 6.608,9.808 C6.30133333,9.59733333 5.94533333,9.492 5.54,9.492 C5.13466667,9.492 4.77866667,9.59733333 4.472,9.808 C4.16533333,10.0186667 3.92933333,10.3173333 3.764,10.704 C3.59866667,11.0906667 3.516,11.54 3.516,12.052 C3.516,12.564 3.59866667,13.0133333 3.764,13.4 C3.92933333,13.7866667 4.16533333,14.0853333 4.472,14.296 C4.77866667,14.5066667 5.13466667,14.612 5.54,14.612 Z M13.756,15.084 L13.1,15.084 L12.364,13.012 L10.108,13.012 L9.37200001,15.084 L8.71600001,15.084 L10.908,9.02 L11.556,9.02 L13.756,15.084 Z M11.212,9.924 L10.324,12.42 L12.148,12.42 L11.26,9.924 L11.212,9.924 Z" id="形状结合" fill="#2C2C2C" fill-rule="nonzero"></path>
    </g>
</svg>